# xmcd
#
# Track frame offsets:
#	150
#	19168
#	37749
#	56780
#	75318
#	96590
#	117298
#	136761
#	159068
#	173656
#	190248
#
# Disc length: 2857 seconds
#
# Revision: 1
# Processed by: cddbd v1.5.2PL0 Copyright (c) Steve Scherf et al.
# Submitted via: audiograbber 1.83.01
#
DISCID=7d0b270b
DTITLE=Blues Traveler - Cover Yourself
DYEAR=2007
DGENRE=Blues
TTITLE0=Blues Traveler
TTITLE1=Just For Me
TTITLE2=Defense and Desire
TTITLE3=Hook
TTITLE4=Mountains Win Again
TTITLE5=100 years
TTITLE6=Lost Me There
TTITLE7=Run Around
TTITLE8=NY Prophesie
TTITLE9=Reach Me
TTITLE10=Carolina Blues
EXTD=
EXTT0=
EXTT1=
EXTT2=
EXTT3=
EXTT4=
EXTT5=
EXTT6=
EXTT7=
EXTT8=
EXTT9=
EXTT10=
PLAYORDER=
